<?xml version="1.0" standalone="no"?><!DOCTYPE svg PUBLIC "-//W3C//DTD SVG 1.1//EN" "http://www.w3.org/Graphics/SVG/1.1/DTD/svg11.dtd"><svg t="1550471608286" class="icon" style="" viewBox="0 0 1024 1024" version="1.1" xmlns="http://www.w3.org/2000/svg" p-id="7023" xmlns:xlink="http://www.w3.org/1999/xlink" width="200" height="200"><defs><style type="text/css"></style></defs><path d="M922.218896 301.906028c-22.661116-49.453319-55.04671-93.817736-96.260367-131.86119-41.032532-37.875632-88.769766-67.595514-141.887544-88.333838-54.852282-21.415752-113.079428-32.275077-173.063591-32.275077s-118.212332 10.858302-173.064614 32.275077c-53.117778 20.739347-100.856036 50.459229-141.887544 88.333838-41.213657 38.043455-73.600275 82.407871-96.260367 131.86119-23.554462 51.404764-35.497469 106.020662-35.497469 162.331155 0 64.028269 15.290241 125.43585 45.446052 182.516894 23.836895 45.121664 56.942897 86.434581 96.680946 120.907721l7.776104 227.167836 270.040273-116.530017c8.90788 0.488117 17.860786 0.737804 26.76662 0.737804 59.984163 0 118.212332-10.858302 173.063591-32.274054 53.117778-20.739347 100.856036-50.459229 141.887544-88.333838 41.213657-38.043455 73.600275-82.407871 96.260367-131.86119 23.554462-51.404764 35.496445-106.020662 35.496445-162.331155S945.772334 353.310791 922.218896 301.906028zM511.00637 815.223023c-12.70844 0-25.520233-0.576121-38.081317-1.714038l-0.041956 0.467651-0.101307-0.23536-198.00361 85.442998-5.563716-162.534793-0.182149 0.00614 0.201591-0.270153c-89.685625-67.048045-141.122111-166.242232-141.122111-272.148283 0-193.533808 171.766039-350.98584 382.89355-350.98584 211.128535 0 382.89355 157.452032 382.89355 350.98584C893.89992 657.770991 722.134905 815.223023 511.00637 815.223023z" p-id="7024" fill="#d81e06"></path><path d="M708.745966 349.909321 325.852416 349.909321c-17.549701 0-31.907711 14.358009-31.907711 31.907711l0 0c0 17.549701 14.358009 31.907711 31.907711 31.907711L708.745966 413.724743c17.549701 0 31.907711-14.358009 31.907711-31.907711l0 0C740.653677 364.267331 726.294644 349.909321 708.745966 349.909321z" p-id="7025" fill="#d81e06"></path><path d="M644.963291 542.831192 325.884139 542.831192c-17.549701 0-31.907711 14.358009-31.907711 31.907711l0 0c0 17.549701 14.358009 31.907711 31.907711 31.907711L644.963291 606.646614c17.549701 0 31.907711-14.358009 31.907711-31.907711l0 0C676.871001 557.189202 662.511969 542.831192 644.963291 542.831192z" p-id="7026" fill="#d81e06"></path></svg>